HIERARCHY
ROOT Hips
{
	OFFSET 0.00000 0.00000 0.00000
	CHANNELS 6 Xposition Yposition Zposition Zrotation Yrotation Xrotation 
	JOINT LHipJoint
	{
		OFFSET 0 0 0
		CHANNELS 3 Zrotation Yrotation Xrotation
		JOINT LeftHip
		{
			OFFSET 1.75344 -1.53157 0.77399
			CHANNELS 3 Zrotation Yrotation Xrotation
			JOINT LeftKnee
			{
				OFFSET 2.25415 -6.19323 0.00000
				CHANNELS 3 Zrotation Yrotation Xrotation
				JOINT LeftAnkle
				{
					OFFSET 2.30342 -6.32861 0.00000
					CHANNELS 3 Zrotation Yrotation Xrotation
					JOINT LeftToe
					{
						OFFSET 0.10958 -0.30108 1.49206
						CHANNELS 3 Zrotation Yrotation Xrotation
						End Site
						{
							OFFSET 0.00000 -0.00000 0.77783
						}
					}
				}
			}
		}
	}
	JOINT RHipJoint
	{
		OFFSET 0 0 0
		CHANNELS 3 Zrotation Yrotation Xrotation
		JOINT RightHip
		{
			OFFSET -1.81912 -1.53156 0.77399
			CHANNELS 3 Zrotation Yrotation Xrotation
			JOINT RightKnee
			{
				OFFSET -2.22882 -6.12365 0.00000
				CHANNELS 3 Zrotation Yrotation Xrotation
				JOINT RightAnkle
				{
					OFFSET -2.21943 -6.09785 0.00000
					CHANNELS 3 Zrotation Yrotation Xrotation
					JOINT RightToe
					{
						OFFSET -0.18931 -0.52012 1.59379
						CHANNELS 3 Zrotation Yrotation Xrotation
						End Site
						{
							OFFSET -0.00000 -0.00000 0.84686
						}
					}
				}
			}
		}
	}
	JOINT lowerback
	{
		OFFSET 0 0 0
		CHANNELS 3 Zrotation Yrotation Xrotation
		JOINT Chest
		{
			OFFSET -0.00200 1.66634 -0.14248
			CHANNELS 3 Zrotation Yrotation Xrotation
			JOINT Chest2
			{
				OFFSET -0.00875 1.64542 0.09514
				CHANNELS 3 Zrotation Yrotation Xrotation
				JOINT lowerneck
				{
					OFFSET 0 0 0
					CHANNELS 3 Zrotation Yrotation Xrotation
					JOINT Neck
					{
						OFFSET 0.02257 1.59605 0.00839
						CHANNELS 3 Zrotation Yrotation Xrotation
						JOINT Head
						{
							OFFSET -0.10214 1.57530 -0.23335
							CHANNELS 3 Zrotation Yrotation Xrotation
							End Site
							{
								OFFSET -0.03588 1.60717 -0.08062
							}
						}
					}
				}
				JOINT LeftCollar
				{
					OFFSET 0 0 0
					CHANNELS 3 Zrotation Yrotation Xrotation
					JOINT LeftShoulder
					{
						OFFSET 2.54983 1.10186 0.40078
CHANNELS 3 Zrotation Xrotation Yrotation
						JOINT LeftElbow
						{
OFFSET 0 -4.288400 0.000000
CHANNELS 3 Zrotation Xrotation Yrotation
							JOINT LeftWrist
							{
OFFSET 0 -3.065520 -0.000000
CHANNELS 3 Zrotation Xrotation Yrotation
								JOINT lhand
								{
									OFFSET 0 0 0
CHANNELS 3 Zrotation Xrotation Yrotation
									JOINT LFingers
									{
OFFSET 0 -0.753040 0.000000
CHANNELS 3 Zrotation Xrotation Yrotation
										End Site
										{
OFFSET 0 -0.607120 0.000000
										}
									}
								}
								JOINT LThumb
								{
OFFSET 0 0.000000 0.000000
CHANNELS 3 Zrotation Xrotation Yrotation
									End Site
									{
OFFSET 0 -0.616390 0.616390
									}
								}
							}
						}
					}
				}
				JOINT RightCollar
				{
					OFFSET 0 0 0
					CHANNELS 3 Zrotation Yrotation Xrotation
					JOINT RightShoulder
					{
						OFFSET -2.60909 1.35448 0.21802
CHANNELS 3 Zrotation Xrotation Yrotation
						JOINT RightElbow
						{
OFFSET 0 -4.521720 -0.000000
CHANNELS 3 Zrotation Xrotation Yrotation
							JOINT RightWrist
							{
OFFSET 0 -2.891400 0.000000
CHANNELS 3 Zrotation Xrotation Yrotation
								JOINT rhand
								{
									OFFSET 0 0 0
CHANNELS 3 Zrotation Xrotation Yrotation
									JOINT RFingers
									{
OFFSET 0 -0.680540 0.000000
CHANNELS 3 Zrotation Xrotation Yrotation
										End Site
										{
OFFSET 0 -0.548670 0.000000
										}
									}
								}
								JOINT RThumb
								{
OFFSET 0 0.000000 0.000000
CHANNELS 3 Zrotation Xrotation Yrotation
									End Site
									{
OFFSET 0 -0.557050 0.557050
									}
								}
							}
						}
					}
				}
			}
		}
	}
}
MOTION
Frames: 12
Frame Time: 0.008333333333333333
8.358200 15.022100 40.539300 -179.404000 -4.168600 178.113000 0.000000 0.000000 0.000000 -27.999500 -24.902700 -0.047400 3.192800 11.000900 32.282800 2.144000 1.225900 -28.160600 3.275700 -11.128500 -32.714300 0.000000 0.000000 0.000000 29.910200 15.445700 0.582400 -2.655700 -10.115600 29.352000 -1.956200 -21.984700 -41.481600 -1.492200 -7.716900 21.857400 4.167700 1.140900 8.767000 -1.922700 1.832900 -4.302200 -4.709300 0.531200 -9.336000 -5.312800 -1.575700 -9.353300 5.935400 -5.288200 28.981100 2.261800 -3.193200 11.182200 0.000000 -0.000000 0.000000 5.689500 16.150700 -33.133600 21.559200 -32.475300 6.347500 7.016200 9.916900 28.461900 0.000000 0.000000 0.000000 -7.125000 0.000000 0.000000 -13.781100 2.043300 -13.687200 0.000000 -0.000000 0.000000 -3.360800 15.173500 51.357100 -18.414700 -28.684900 -4.746600 -21.663200 30.262500 60.336600 0.000000 0.000000 0.000000 7.125000 0.000000 -0.000000 -169.113600 2.519200 10.592900
8.389396 15.057656 40.524507 -179.571237 -2.996315 179.734391 0.000000 0.000000 0.000000 -27.441840 -25.432685 -1.394088 3.096950 10.850327 31.776904 1.881069 3.023506 -27.139080 4.363109 -12.627303 -37.990794 0.000000 0.000000 0.000000 29.477802 17.077575 -0.608078 -2.628003 -10.067000 29.194095 -1.787267 -22.372217 -41.092570 -1.504822 -7.747812 21.950708 2.541297 1.707120 6.443351 -1.305740 2.362947 -4.404001 -3.113624 0.932754 -8.100655 -5.370905 -1.603336 -9.353783 5.214871 -4.989447 28.661906 2.049752 -3.110071 11.022547 0.000000 0.000000 0.000000 4.652694 15.781644 -32.929305 22.013588 -32.992271 6.593236 6.489046 9.607537 29.775675 0.000000 0.000000 0.000000 -7.125000 0.000000 0.000000 -14.125892 0.822705 -14.367501 0.000000 0.000000 0.000000 -4.459781 14.216095 51.381308 -18.004175 -28.162482 -4.551208 -17.352628 26.847690 59.334364 0.000000 0.000000 0.000000 7.125000 0.000000 0.000000 -73.439857 -0.564313 -97.383322
8.415291 15.082791 40.522543 -179.523696 -2.247841 180.892215 0.000000 0.000000 0.000000 -26.729657 -25.588758 -2.654660 3.069601 10.806932 31.631418 1.843327 3.417935 -27.060688 4.407850 -12.684018 -38.197072 0.000000 0.000000 0.000000 29.245380 17.970535 -1.580549 -2.577374 -9.977267 28.903286 -1.603626 -22.246093 -40.128095 -1.438796 -7.583524 21.456035 1.399881 2.008983 5.268007 -0.728583 2.646053 -4.776708 -1.858640 1.142053 -7.868774 -4.927573 -1.450581 -8.820846 4.243678 -4.514303 28.172279 1.689137 -2.943738 10.667762 0.000000 0.000000 0.000000 3.823343 15.884600 -32.478301 22.287949 -33.300906 6.743245 3.540732 10.784511 28.753918 0.000000 0.000000 0.000000 -7.125000 0.000000 0.000000 -15.789532 2.101185 -15.817811 0.000000 0.000000 0.000000 -5.365055 14.044865 51.384600 -17.875696 -27.997643 -4.490698 -13.358108 24.415540 58.141728 0.000000 0.000000 0.000000 7.125000 0.000000 0.000000 -13.244740 -3.538484 -167.247163
8.423141 15.085506 40.530564 -179.541279 -2.745960 180.910688 0.000000 0.000000 0.000000 -26.591498 -25.453372 -2.931436 3.088107 10.836355 31.729959 1.839450 2.869244 -26.785572 4.369229 -12.636042 -38.021027 0.000000 0.000000 0.000000 29.273042 17.899778 -1.561369 -2.557033 -9.940860 28.785492 -1.592412 -22.712750 -40.541226 -1.460164 -7.637199 21.617509 0.985868 1.877254 5.125754 -0.362536 2.462566 -4.659507 -1.213449 1.092621 -7.699875 -5.182756 -1.075231 -9.118336 4.335447 -3.884418 28.218161 1.841521 -2.652574 10.714250 0.000000 0.000000 0.000000 3.458044 15.725579 -32.639251 22.270338 -33.281182 6.733626 4.750138 10.363099 28.447130 0.000000 0.000000 0.000000 -7.125000 0.000000 0.000000 -15.090781 2.286377 -15.012782 0.000000 0.000000 0.000000 -6.075869 13.654555 51.196385 -17.620349 -27.668312 -4.371527 -11.288079 23.694911 56.105855 0.000000 0.000000 0.000000 7.125000 0.000000 0.000000 -13.779286 -5.875530 -167.323237
8.429892 15.086311 40.528151 -179.530738 -3.019663 181.023017 0.000000 0.000000 0.000000 -26.480133 -25.544376 -3.067227 3.075855 10.816783 31.664577 1.825752 2.672799 -26.604576 4.453950 -12.740869 -38.406397 0.000000 0.000000 0.000000 29.251749 17.754914 -1.798637 -2.572394 -9.968343 28.874288 -1.618553 -22.681834 -40.629785 -1.472520 -7.665436 21.703777 1.230049 2.000230 5.245362 -0.428065 2.635105 -4.883576 -1.448311 1.150991 -7.992864 -4.711674 -0.489333 -8.925193 4.416273 -3.077026 27.915336 1.889662 -2.205076 10.508638 0.000000 0.000000 0.000000 3.687792 15.687726 -32.718149 21.693617 -32.628981 6.419877 4.963698 10.701966 29.702808 0.000000 0.000000 0.000000 -7.125000 0.000000 0.000000 -14.992636 1.054822 -15.248709 0.000000 0.000000 0.000000 -5.850156 13.800323 50.285817 -17.357610 -27.326779 -4.250212 -9.945435 23.942444 55.113347 0.000000 0.000000 0.000000 7.125000 0.000000 0.000000 -14.209750 -7.092846 -167.244744
8.435011 15.087261 40.535027 -179.675382 -3.143517 180.942147 0.000000 0.000000 0.000000 -26.640104 -25.449999 -2.992889 3.056596 10.786131 31.561943 1.811707 2.665464 -26.503391 4.496845 -12.793723 -38.601103 0.000000 0.000000 0.000000 29.085775 17.585232 -1.828664 -2.588146 -9.996381 28.965061 -1.722932 -22.384914 -40.814307 -1.463708 -7.646017 21.643847 1.238535 2.097351 5.405355 -0.430006 2.773155 -4.845329 -1.477561 1.219681 -8.040485 -3.979475 0.530423 -8.987036 4.570964 -1.677711 27.637677 1.983297 -1.434747 10.334838 0.000000 0.000000 0.000000 3.598125 15.551425 -32.216330 21.138702 -31.989849 6.123203 4.802557 12.047659 29.544866 0.000000 0.000000 0.000000 -7.125000 0.000000 0.000000 -15.080769 1.222998 -15.298675 0.000000 0.000000 0.000000 -5.765225 13.713920 50.067074 -17.533489 -27.555719 -4.331229 -9.009644 22.885070 55.061265 0.000000 0.000000 0.000000 7.125000 0.000000 0.000000 -14.564495 -7.345020 -166.977956
8.444738 15.086932 40.538532 -179.782179 -3.413487 180.897788 0.000000 0.000000 0.000000 -26.771594 -25.595521 -2.865147 3.056975 10.786728 31.563970 1.824883 2.535536 -26.539070 4.399853 -12.674273 -38.161032 0.000000 0.000000 0.000000 29.066589 17.620031 -1.728843 -2.583189 -9.987672 28.936830 -1.643044 -22.604048 -40.665050 -1.486372 -7.702301 21.813550 1.111070 2.109498 5.566751 -0.290766 2.791916 -4.855318 -1.269601 1.239626 -8.158222 -2.366006 2.139471 -9.049614 4.159810 0.517526 27.573918 1.808086 -0.274689 10.224860 0.000000 0.000000 0.000000 3.459714 15.349063 -31.801837 20.670892 -31.441485 5.877635 3.894286 12.688382 29.493409 0.000000 0.000000 0.000000 -7.125000 0.000000 0.000000 -15.597282 1.354181 -15.824931 0.000000 0.000000 0.000000 -5.897238 13.871600 50.260156 -17.762515 -27.851918 -4.437767 -10.462491 23.041706 55.057622 0.000000 0.000000 0.000000 7.125000 0.000000 0.000000 -14.007820 -7.029811 -167.420265
8.454758 15.090734 40.542373 -179.821104 -3.703121 180.972599 0.000000 0.000000 0.000000 -26.706789 -25.695588 -3.045796 3.064575 10.798864 31.604481 1.804364 2.457531 -26.362324 4.409432 -12.685547 -38.203458 0.000000 0.000000 0.000000 29.050043 17.593104 -1.774154 -2.567991 -9.960538 28.849051 -1.736455 -22.539765 -41.026308 -1.713240 -8.241260 23.449407 1.057435 2.114690 5.580502 -0.123796 2.804233 -4.892696 -1.067068 1.252313 -8.217572 -0.546421 3.918313 -8.796617 3.460730 3.008205 27.255836 1.519451 1.021982 10.018872 0.000000 0.000000 0.000000 3.164060 15.346916 -30.772139 20.305835 -31.009082 5.688103 2.478573 14.073400 29.808718 0.000000 0.000000 0.000000 -7.125000 0.000000 0.000000 -16.400833 1.181963 -16.764740 0.000000 0.000000 0.000000 -6.065621 13.900730 50.832280 -17.954629 -28.099007 -4.527856 -11.509953 22.592927 53.946038 0.000000 0.000000 0.000000 7.125000 0.000000 0.000000 -13.517876 -7.825865 -168.103786
8.462592 15.088416 40.546212 -179.663030 -4.093963 180.796043 0.000000 0.000000 0.000000 -26.639300 -26.012299 -2.774359 3.086461 10.833678 31.720966 1.836409 2.120980 -26.444553 4.439266 -12.722995 -38.340193 0.000000 0.000000 0.000000 29.399819 17.621797 -1.449455 -2.547975 -9.924578 28.732893 -1.752580 -22.972305 -41.521566 -1.642314 -8.077196 22.948874 1.460748 2.194239 5.809064 -0.099275 2.962779 -4.809360 -1.294391 1.310659 -8.239011 1.080569 5.924900 -8.442050 3.608060 5.616747 26.994510 1.568488 2.448183 9.852686 0.000000 0.000000 0.000000 3.546537 15.201878 -31.110529 19.937871 -30.567451 5.499745 4.949309 13.839443 29.928659 0.000000 0.000000 0.000000 -7.125000 0.000000 0.000000 -15.007708 0.835044 -15.322804 0.000000 0.000000 0.000000 -5.729407 13.807315 50.896904 -18.243614 -28.467897 -4.664802 -11.334663 21.636029 55.121730 0.000000 0.000000 0.000000 7.125000 0.000000 0.000000 -13.679045 -6.775073 -167.664296
8.468844 15.092590 40.549273 -179.674581 -4.594022 181.080149 0.000000 0.000000 0.000000 -26.347446 -25.964551 -3.350869 3.083349 10.828779 31.704619 1.805008 1.851895 -26.115484 4.547154 -12.854756 -38.827552 0.000000 0.000000 0.000000 29.388732 17.825906 -1.667889 -2.547501 -9.923772 28.730277 -1.869423 -22.953868 -42.018502 -1.810296 -8.459141 24.117508 1.835264 2.270932 5.623043 -0.199514 3.084512 -4.889294 -1.617055 1.342660 -8.187977 2.362235 7.878340 -8.264722 3.991700 8.108567 27.102187 1.759021 3.798617 9.873878 0.000000 0.000000 0.000000 3.834505 15.117784 -30.996208 19.832083 -30.439516 5.446052 3.854997 14.121474 29.612417 0.000000 0.000000 0.000000 -7.125000 0.000000 0.000000 -15.620376 1.248123 -15.882306 0.000000 0.000000 0.000000 -5.344499 14.064909 50.827240 -18.605349 -28.925332 -4.838484 -10.975490 21.515417 55.478265 0.000000 0.000000 0.000000 7.125000 0.000000 0.000000 -13.843701 -6.525689 -167.437567
8.474416 15.082837 40.551060 -179.709933 -5.306803 180.800112 0.000000 0.000000 0.000000 -26.454758 -25.984619 -3.145162 3.114323 10.877892 31.869060 1.824277 1.200208 -25.996869 4.665688 -12.997021 -39.357541 0.000000 0.000000 0.000000 29.527083 17.486432 -1.341324 -2.529554 -9.891492 28.626092 -1.869030 -23.358185 -42.406555 -1.850873 -8.547965 24.391466 2.220003 2.250762 6.000750 -0.308293 3.104064 -4.839933 -1.965745 1.327154 -8.329695 3.989971 9.663618 -7.873122 3.783123 10.457661 27.151991 1.675318 5.048706 9.923589 0.000000 0.000000 0.000000 4.098718 14.742649 -30.831758 19.605624 -30.164215 5.331727 5.042242 13.426330 29.876338 0.000000 0.000000 0.000000 -7.125000 0.000000 0.000000 -14.952235 0.877996 -15.252592 0.000000 0.000000 0.000000 -4.803914 13.855966 50.985709 -18.295424 -28.533725 -4.689531 -11.417224 21.804605 55.178723 0.000000 0.000000 0.000000 7.125000 0.000000 0.000000 -13.652735 -6.704196 -167.670306
8.468410 15.087199 40.556863 -179.738728 -5.055561 181.163280 0.000000 0.000000 0.000000 -26.385846 -26.157897 -3.522230 3.107104 10.866382 31.830524 1.809149 1.739347 -26.098926 4.628190 -12.952469 -39.190856 0.000000 0.000000 0.000000 29.258351 17.612801 -1.827936 -2.534148 -9.899727 28.652685 -1.845074 -23.070224 -42.024487 -1.899452 -8.653368 24.716801 2.485086 2.590661 5.924291 -0.322494 3.573403 -5.035944 -2.188828 1.530042 -8.459248 5.067060 11.163819 -7.808016 3.688526 12.431724 27.643081 1.723684 6.062779 10.188995 0.000000 0.000000 0.000000 4.048035 14.703500 -30.517708 19.566860 -30.116969 5.312280 5.665337 13.143687 30.847852 0.000000 0.000000 0.000000 -7.125000 0.000000 0.000000 -14.628316 -0.122938 -15.162789 0.000000 0.000000 0.000000 -4.804715 14.182966 51.514676 -18.270261 -28.501855 -4.677499 -12.615226 22.700527 53.491511 0.000000 0.000000 0.000000 7.125000 0.000000 0.000000 -13.041492 -7.991347 -168.590922
